<svg width="139" height="118" viewBox="0 0 139 118" fill="none" xmlns="http://www.w3.org/2000/svg">
<mask id="mask0_17_258" style="mask-type:luminance" maskUnits="userSpaceOnUse" x="-1" y="0" width="141" height="118">
<path d="M-0.00646973 0H139.006V117.938H-0.00646973V0Z" fill="white"/>
</mask>
<g mask="url(#mask0_17_258)">
<path d="M107.288 10.8873C106.179 10.0702 106.266 8.75657 106.587 7.52987C107.025 5.89564 107.666 4.29037 108.219 2.6851C108.337 2.3355 108.51 2.01279 108.657 1.60527C107.346 1.13776 106.237 1.42944 105.188 2.13071C103.614 3.18158 102.449 4.61101 101.632 6.27627C99.0671 11.4417 97.2322 16.8719 95.7159 22.4179C95.0167 24.9872 94.3465 27.5274 93.6183 30.0946C93.5004 30.5332 93.2397 30.9717 92.9191 31.2924C90.4409 33.7437 87.9337 36.1682 85.4575 38.6195C84.2039 39.8462 83.0082 41.0998 81.7857 42.3265C81.5519 42.5603 81.2023 42.6761 80.9106 42.852C80.8237 42.7361 80.7637 42.6472 80.6769 42.5313C81.5809 41.8011 82.4849 41.0998 83.3868 40.3717C83.2709 40.2248 83.1551 40.08 83.0082 39.9331C82.1063 40.1379 81.1733 40.2827 80.2693 40.5454C80.0356 40.6054 79.8908 41.0419 79.7729 41.3336C78.782 43.8159 77.7911 46.3252 76.7713 48.8076C76.6554 49.0993 76.4506 49.333 76.2769 49.5957C76.1879 49.5668 76.0721 49.5068 75.9852 49.4778C76.0431 49.1572 76.0721 48.8365 76.1879 48.5449C76.7713 47.1134 77.3546 45.6839 77.9669 44.2835C79.7149 40.1958 80.6189 35.9344 80.5321 31.4682C80.4141 25.4836 81.2313 19.6149 82.5138 13.8061C82.6297 13.3097 82.7455 12.8442 82.8924 12.3477C81.3761 11.4417 80.8817 10.4198 81.2023 8.58074C81.405 7.41402 81.7857 6.24524 82.1063 4.93165C81.6677 5.07852 81.2602 5.19437 80.9106 5.3702C78.8999 6.36315 77.7621 8.08426 76.9761 10.1281C75.3439 14.4495 74.6157 19.0026 73.7117 23.4977C72.9836 27.1468 72.3423 30.8249 71.4673 34.445C70.6212 37.9472 68.8442 40.955 66.1343 43.3774C65.1724 44.2235 64.2973 45.1585 63.3354 45.9756C62.6073 46.5879 62.2287 47.2023 62.7231 48.1353C62.841 48.3401 62.8121 48.6028 62.87 48.8655C62.7521 48.9234 62.6362 48.9524 62.5204 49.0124C62.3156 48.6317 62.0529 48.2532 61.937 47.8146C61.7901 47.2892 61.5295 47.1134 60.9751 47.0554C59.4588 46.8506 57.9445 46.559 56.4282 46.2383C52.4068 45.3343 48.4143 44.3124 44.3908 43.4353C43.342 43.2016 42.2063 43.4063 41.1265 43.4063C41.0975 43.2615 41.0685 43.1436 41.0396 42.9988C41.3313 42.9099 41.6519 42.6761 41.9146 42.7071C44.0701 42.9099 46.2857 42.9699 48.3833 43.4353C51.9103 44.1945 55.4084 45.2164 58.8775 46.1804C60.7413 46.7058 62.2866 46.4142 63.6271 44.8668C64.7938 43.5243 66.1922 42.4134 67.3879 41.0998C69.8351 38.4147 70.7101 34.9704 71.6121 31.4972C69.049 31.7599 66.6287 32.0516 64.2105 32.2853C58.6727 32.8108 53.2508 33.7437 48.0337 35.6717C43.6047 37.3059 39.4074 39.4077 35.7645 42.4444C34.3951 43.5822 33.0257 44.8379 31.9169 46.2383C23.9029 56.1926 15.0119 65.3298 5.97815 74.3202C4.34599 75.9544 2.77175 77.6776 1.16855 79.3408C0.905835 79.6035 0.556234 79.7793 0.264555 80.0131C0.177672 79.9262 0.0907895 79.8083 0.00390625 79.7214C0.235594 79.4587 0.44039 79.196 0.674147 78.9332C6.24087 73.2114 11.9234 67.6074 17.3743 61.7676C22.2418 56.5422 26.7866 51.0252 31.4804 45.655C34.5399 42.1217 38.3007 39.5235 42.438 37.4218C48.9087 34.1533 55.8159 32.5191 62.9569 31.8178C65.4351 31.5841 67.8823 31.2345 70.3605 31.0297C71.4673 30.9428 71.9037 30.4753 72.1085 29.3375C72.8946 24.6955 73.7407 20.0824 74.7316 15.5003C75.197 13.3097 75.9562 11.179 76.7423 9.07721C77.6463 6.68379 79.4233 5.10749 81.8725 4.29037C82.309 4.1435 82.7165 3.70701 83.0372 3.32638C83.5337 2.71407 83.8253 1.69216 84.7873 1.92591C85.8071 2.18863 85.6892 3.26846 85.6023 4.05661C85.3706 5.69084 85.1369 7.32714 84.6404 8.87242C82.8345 14.5653 81.7857 20.403 81.3471 26.3297C81.3181 26.6793 81.3471 27.031 81.3471 27.5854C81.8146 27.2647 82.1353 27.031 82.4849 26.8262C86.0409 24.6665 89.45 22.2421 93.1797 20.492C95.2215 19.528 96.2993 18.4192 96.9405 16.3175C97.9604 13.0469 99.3588 9.92329 100.67 6.77067C101.487 4.87373 102.712 3.2395 104.373 1.95487C105.596 0.990885 106.936 0.583363 108.51 0.875041C108.802 0.932963 109.123 0.699206 109.443 0.583362C109.911 0.407527 110.521 4.97699e-06 110.842 0.173771C111.162 0.349606 111.454 1.07984 111.367 1.51632C111.162 2.82991 110.842 4.1435 110.405 5.39916C108.889 9.74952 107.17 14.0109 105.772 18.3613C103.906 24.1121 102.857 30.0657 102.158 36.0792C101.924 38.0651 101.109 39.7283 99.7373 41.1598C98.1052 42.8809 96.473 44.6331 94.8119 46.3252C92.2489 48.9813 89.6548 51.6106 87.1186 54.2667C84.8162 56.6601 82.6007 59.1115 79.686 60.8926C81.6388 61.3601 84.7583 60.483 86.6511 58.9357C88.9245 57.0677 91.198 55.1707 93.5004 53.3317C98.0762 49.7405 102.681 46.2383 107.257 42.6761C108.831 41.4804 110.405 40.2827 111.922 38.9981C112.474 38.5326 113.057 37.8603 113.262 37.188C115.914 28.87 119.615 21.0174 123.812 13.3986C123.841 13.3407 123.87 13.2807 123.899 13.1649C122.53 12.114 122.705 10.6825 123.287 9.36889C124.133 7.47195 125.182 5.69084 126.201 3.73598C125.357 3.00574 124.249 2.91886 123.084 3.35534C121.247 4.05661 119.907 5.34124 118.916 7.00443C116.847 10.4798 114.836 13.953 112.855 17.4552C110.902 20.8995 109.094 24.4328 107.083 27.8191C106.179 29.3375 104.954 30.6511 103.848 32.0226C103.672 32.2564 103.382 32.4012 103.12 32.577C103.033 32.5191 102.944 32.4301 102.857 32.3722C102.973 32.1385 103.033 31.8757 103.206 31.702C105.48 29.6871 106.791 27.031 108.219 24.4617C111.425 18.7978 114.574 13.1069 117.78 7.44298C118.682 5.80876 119.849 4.37725 121.452 3.38637C123.142 2.36446 124.774 1.92591 126.522 3.0347C126.698 3.15262 127.048 3.06367 127.281 2.97678C127.573 2.86094 127.834 2.59822 128.125 2.48031C128.854 2.18863 129.35 2.59822 129.203 3.35534C129.116 3.85182 128.942 4.31933 128.709 4.78685C126.259 9.72056 123.667 14.5653 121.334 19.557C119.121 24.2569 117.168 29.0748 115.097 33.8327C114.952 34.1533 114.894 34.5029 114.718 35.0283C115.885 34.3581 116.847 33.7148 117.867 33.2183C121.247 31.5261 124.598 29.774 128.096 28.2866C129.671 27.6143 131.508 27.3806 133.256 27.2647C135.09 27.1468 136.52 28.1108 137.54 29.6581C137.685 29.8629 137.86 30.0946 138.065 30.2415C138.909 30.738 138.996 31.2055 138.094 31.702C136.257 32.7528 134.362 33.6568 132.498 34.6208C131.419 35.2042 130.254 35.6717 129.234 36.3709C124.687 39.4077 120.169 42.5313 116.38 46.501C114.632 48.3401 112.65 49.3041 110.261 49.7695C105.567 50.7045 100.875 51.7264 96.2124 52.8063C95.2794 53.0111 94.3175 53.5075 93.5293 54.0909C91.5476 55.5803 89.5948 57.1277 87.7599 58.7909C85.4575 60.8926 82.7765 61.6807 79.7439 61.6807C72.4871 61.6807 65.3172 62.322 58.1762 63.7535C55.0009 64.3948 51.9103 65.154 48.9956 66.5255C44.9162 68.4535 41.8857 71.6351 38.9709 74.9035C34.6558 79.6924 31.2756 85.1495 28.0692 90.6976C24.2815 97.2945 20.6965 104.007 17.1116 110.751C16.0628 112.737 15.4215 114.897 14.5754 116.998C14.4885 117.261 14.4017 117.524 14.2548 117.729C14.1679 117.844 13.9342 117.962 13.8473 117.902C13.7004 117.815 13.5266 117.611 13.5556 117.466C13.5845 117.174 13.7004 116.882 13.8183 116.589C15.9159 110.43 18.9775 104.709 22.1529 99.0756C26.0874 92.0981 30.1399 85.1495 34.8316 78.6416C37.5126 74.9035 40.5741 71.4303 44.1591 68.5404C48.3833 65.125 53.3108 63.3439 58.7306 62.8475C61.0909 62.6447 63.4223 62.0303 65.7847 61.7676C69.2228 61.418 72.6629 61.2132 76.101 61.0084C77.7911 60.8926 79.3364 60.3961 80.6479 59.3163C81.9884 58.2075 83.3289 57.0677 84.5535 55.843C88.5749 51.7554 92.5695 47.6388 96.533 43.4953C97.7556 42.2107 98.9802 40.926 100.029 39.4945C100.641 38.6774 101.08 37.5976 101.283 36.5757C102.129 32.2564 102.652 27.877 103.643 23.6156C104.663 19.3832 106.063 15.2087 107.288 10.8873ZM137.132 30.2994C136.315 28.5183 134.391 27.4385 132.178 27.906C130.196 28.3156 128.183 28.87 126.377 29.745C122.646 31.5261 119.032 33.6279 115.331 35.4959C114.545 35.8744 114.369 36.4598 114.048 37.1011C113.583 37.9782 113.173 38.9981 112.416 39.5835C107.462 43.4953 102.449 47.2892 97.4349 51.1141C97.1453 51.3168 96.8826 51.5796 96.4441 51.9602C96.8826 51.9023 97.1143 51.9023 97.3191 51.8733C101.167 51.0541 104.983 50.1501 108.831 49.4778C111.893 48.9234 114.427 47.7857 116.671 45.4502C120.49 41.4515 125.095 38.4147 129.671 35.32C129.991 35.0863 130.486 34.8835 130.575 34.5608C131.011 33.3072 132.06 32.7818 133.08 32.2274C134.362 31.5551 135.703 30.9717 137.132 30.2994ZM95.629 20.3162C95.5421 20.2293 95.4821 20.1713 95.3953 20.0824C94.1417 20.6368 92.8301 21.0753 91.6655 21.8056C88.4012 23.7894 85.2237 25.8911 81.9884 27.906C81.434 28.2556 81.2313 28.6652 81.2313 29.3065C81.1733 31.5261 81.1154 33.7437 80.9685 35.9344C80.9106 36.9853 80.6769 38.0072 80.4741 39.2608C82.0753 38.5037 83.5047 37.8314 84.9321 37.1901C88.1385 35.7296 90.2961 33.0156 92.5985 30.4753C92.7722 30.2705 92.8881 30.0077 92.977 29.774C93.85 26.6214 94.754 23.4688 95.629 20.3162ZM84.8452 2.59822C84.6693 2.48031 84.4956 2.36446 84.3197 2.24655C84.1749 2.53823 83.9991 2.82991 83.8833 3.15262C83.1841 5.0206 82.4849 6.88859 81.8725 8.78553C81.6967 9.31097 81.8436 9.98328 82.0173 10.5377C82.1353 10.9162 82.5717 11.2079 83.0661 11.7644C83.9701 8.52282 85.3106 5.7198 84.8452 2.59822ZM123.841 12.3477C124.046 12.3767 124.249 12.4057 124.453 12.4346C125.881 9.39785 127.31 6.33419 128.738 3.29742C128.651 3.2395 128.564 3.18158 128.475 3.09263C128.272 3.21054 128.009 3.26846 127.834 3.4443C125.794 5.3702 124.453 7.73466 123.696 10.4198C123.521 11.0052 123.783 11.7044 123.841 12.3477ZM110.755 0.554401C110.405 0.670245 110.289 0.670245 110.23 0.728167C110.085 0.817119 109.94 0.932963 109.851 1.07984C108.395 3.53118 107.288 6.10043 107.112 8.96137C107.083 9.36889 107.317 9.80744 107.433 10.217C107.549 10.217 107.666 10.217 107.782 10.217C108.918 7.09338 110.639 4.17453 110.755 0.554401ZM131.565 34.0064C131.623 34.1243 131.71 34.2112 131.768 34.3291C133.779 33.3072 135.792 32.3143 137.802 31.2924C137.745 31.1765 137.685 31.0586 137.627 30.9428C135.5 31.702 133.371 32.548 131.565 34.0064Z" fill="black"/>
</g>
</svg>
