<svg width="26" height="26" viewBox="0 0 26 26" fill="none" xmlns="http://www.w3.org/2000/svg">
<path d="M24.558 17.7115L19.0892 15.3677C18.8556 15.2682 18.596 15.2472 18.3494 15.3079C18.1028 15.3687 17.8827 15.5079 17.722 15.7046L15.3002 18.6636C11.4993 16.8715 8.44041 13.8127 6.64832 10.0118L9.6073 7.58989C9.80441 7.42958 9.94392 7.20941 10.0047 6.96272C10.0655 6.71603 10.0443 6.45624 9.94421 6.2227L7.60046 0.753952C7.49066 0.502198 7.29644 0.29665 7.05132 0.17275C6.80619 0.0488502 6.52552 0.014365 6.25769 0.0752409L1.17957 1.24712C0.921347 1.30674 0.690964 1.45213 0.526018 1.65956C0.361072 1.86698 0.271303 2.12419 0.271362 2.38921C0.271362 14.9136 10.4227 25.0455 22.9276 25.0455C23.1927 25.0456 23.45 24.9559 23.6576 24.791C23.8651 24.626 24.0105 24.3956 24.0702 24.1373L25.2421 19.0591C25.3025 18.79 25.2673 18.5082 25.1425 18.2622C25.0176 18.0163 24.8109 17.8215 24.558 17.7115Z" fill="#D4B072"/>
</svg>
