<svg width="154" height="120" viewBox="0 0 154 120" fill="none" xmlns="http://www.w3.org/2000/svg">
<mask id="mask0_17_189" style="mask-type:luminance" maskUnits="userSpaceOnUse" x="0" y="11" width="154" height="109">
<path d="M0.856934 11.6191H153.143V120H0.856934V11.6191Z" fill="white"/>
</mask>
<g mask="url(#mask0_17_189)">
<path d="M51.5672 41.5742C49.9722 41.8351 48.5051 42.0719 47.038 42.3173C43.5025 42.903 39.9999 42.9376 36.5421 41.7868C35.0163 41.2787 33.4576 40.8709 31.8938 40.4804C29.9618 39.9965 27.9573 40.0657 25.9909 39.8566C23.938 39.6371 21.8765 39.4747 19.8201 39.2639C16.4851 38.9234 13.1552 38.5329 9.80286 38.3947C9.00625 38.3636 8.20963 38.3895 7.41475 38.386C7.09334 38.3843 6.7702 38.3843 6.44879 38.3636C6.23625 38.3497 6.01852 38.2841 6.04098 38.0162C6.06172 37.7518 6.28809 37.7242 6.50236 37.7277C7.85712 37.7536 9.21361 37.6758 10.5666 37.7778C13.3885 37.9903 16.2017 38.2668 19.0166 38.5381C22.6575 38.8889 26.2933 39.3192 29.9463 39.5231C31.714 39.6233 33.3487 40.2644 35.037 40.6895C36.5473 41.0714 38.0196 41.5967 39.5592 41.868C41.6363 42.2343 43.7151 42.1151 45.787 41.8438C50.672 41.2096 55.4535 40.1037 60.1675 38.6936C61.4065 38.3221 62.5763 37.8071 63.6546 37.0727C64.2957 36.6338 65.0024 36.2899 65.6954 35.9357C66.9171 35.3084 67.8416 34.2855 68.9648 33.532C71.5948 31.7695 74.0814 29.8065 76.7667 28.1182C78.0386 27.3198 79.2482 26.4075 80.4111 25.445C81.0125 24.949 81.4842 24.3701 81.714 23.615C81.7849 23.3834 82.0268 23.3575 82.1322 23.1951C82.9254 21.9734 84.0935 21.0368 84.7242 19.6838C85.0526 18.9787 85.2599 18.2582 85.3653 17.503C85.4621 16.8032 84.9869 16.4576 84.3441 16.7427C83.5837 17.0814 82.858 17.4736 82.2186 18.0197C81.638 18.5156 81.0176 18.9563 80.342 19.3174C79.8167 19.5974 79.3294 19.9378 78.8784 20.3231C77.2592 21.69 75.4725 22.7717 73.5077 23.5614C73.1621 23.7014 72.8096 23.85 72.5124 24.066C71.1835 25.0337 69.6905 25.6903 68.1854 26.2986C66.848 26.8412 65.6349 27.5445 64.5653 28.5087C64.4771 28.5882 64.3838 28.6642 64.2905 28.7368C64.1367 28.8595 63.9587 28.958 63.798 28.7783C63.6148 28.5761 63.7393 28.3929 63.9034 28.253C64.8469 27.4564 65.768 26.6321 66.9344 26.1448C67.9522 25.7214 68.9492 25.2549 69.9549 24.809C70.6548 24.498 71.3201 24.1299 71.9387 23.6755C72.5037 23.259 73.1604 23.0188 73.7928 22.7389C73.938 22.675 74.1281 22.6663 74.2179 22.4797C73.9846 22.338 73.7254 22.3639 73.4801 22.3725C70.6703 22.4866 67.8675 22.6922 65.0802 23.0949C64.9955 23.107 64.9143 23.1311 64.8296 23.1398C64.6257 23.1571 64.4391 23.119 64.4046 22.8823C64.3752 22.6784 64.529 22.5678 64.7052 22.535C65.2202 22.4417 65.7403 22.3518 66.2587 22.2913C68.4982 22.0287 70.7429 21.8386 72.9945 21.7487C73.7047 21.7194 74.4201 21.7194 75.1078 21.9405C75.2271 21.9786 75.3377 21.9786 75.4483 21.9146C76.4108 21.3755 77.3266 20.7655 78.1837 20.0743C78.3842 19.9119 78.4032 19.784 78.1336 19.6872C77.8156 19.5714 77.5081 19.4246 77.178 19.3433C73.5077 18.4396 69.8011 18.151 66.0375 18.6383C63.2502 18.9995 60.4422 19.2034 57.686 19.7892C57.1728 19.8963 56.6682 20.0484 56.1619 20.1762C55.9338 20.235 55.6608 20.3629 55.5554 20.0466C55.45 19.7339 55.7299 19.6527 55.958 19.5766C57.121 19.1913 58.3254 18.9822 59.5298 18.8007C62.2929 18.3895 65.0698 18.0456 67.8571 17.8296C71.111 17.579 74.3182 17.9609 77.4752 18.7627C77.6238 18.8007 77.788 18.8249 77.9072 18.9096C78.6555 19.4332 79.3173 19.3105 80.0344 18.7783C80.6047 18.3584 81.2302 18.011 81.7728 17.5479C82.4899 16.938 83.3004 16.4766 84.1644 16.1189C85.2046 15.6869 86.0773 16.3487 85.9978 17.4857C85.984 17.6983 85.9546 17.9091 85.9252 18.1718C86.4004 18.0076 86.7858 17.8037 87.1054 17.4978C87.7655 16.8706 87.4787 15.6523 86.5749 15.089C85.8198 14.6224 84.98 14.3788 84.1229 14.3252C81.4203 14.1541 78.7108 13.9468 76.0064 13.9416C72.6403 13.9347 69.3346 14.5447 66.0479 15.241C62.9461 15.8977 59.8029 16.2934 56.6579 16.6459C55.8492 16.7375 55.0456 16.8585 54.2404 16.9604C54.1229 16.976 54.0037 16.9812 53.8844 16.9794C53.6892 16.976 53.4818 16.9345 53.4611 16.7047C53.4386 16.4386 53.6511 16.3643 53.8671 16.3556C54.6482 16.3314 55.4085 16.1448 56.1827 16.0515C57.6463 15.8735 59.1065 15.6955 60.5736 15.5262C60.8207 15.4985 61.0539 15.4398 61.1991 15.2376C61.733 14.4945 61.8886 13.6582 61.6847 12.7769C61.5965 12.4019 61.2406 12.433 60.9658 12.5212C60.418 12.6922 59.8582 12.8616 59.3484 13.1225C55.9408 14.8678 52.2463 15.6143 48.531 16.3487C45.7265 16.9034 42.8597 17.147 40.1053 17.9558C39.6318 18.0923 39.1842 18.3342 38.7056 18.4068C36.924 18.6763 35.4258 19.6838 33.7583 20.2436C32.5124 20.6601 31.2648 20.6082 29.9999 20.4545C27.1331 20.1071 24.3423 19.3814 21.5412 18.7282C17.9107 17.8832 14.3562 16.7427 10.7273 15.9029C7.60656 15.1806 4.46331 14.574 1.31141 14.0228C1.17145 13.9986 0.972724 14.0487 0.912244 13.8742C0.870772 13.7567 0.869044 13.5873 0.926068 13.4854C1.01074 13.3402 1.1749 13.4543 1.29759 13.475C4.80718 14.0608 8.29776 14.7434 11.7555 15.5849C15.8371 16.5785 19.8495 17.8469 23.9587 18.7334C25.844 19.1412 27.7189 19.6198 29.637 19.86C31.4566 20.0864 33.2416 20.0933 34.9333 19.1913C35.7368 18.7627 36.6112 18.4655 37.4459 18.0888C39.1756 17.3077 41.0384 16.9933 42.877 16.6874C44.764 16.3729 46.6389 15.9824 48.531 15.6955C50.5148 15.3948 52.4467 14.892 54.3804 14.3891C55.6608 14.0574 56.905 13.6029 58.0887 13.0136C58.8352 12.6438 59.6076 12.3466 60.3783 12.0373C60.66 11.9233 60.9572 11.8507 61.2699 11.8628C61.9145 11.8852 62.2791 12.1911 62.3638 12.8322C62.4536 13.513 62.4243 14.1939 62.1443 14.8298C61.9404 15.2912 62.0838 15.3136 62.5055 15.2445C64.4132 14.9352 66.3019 14.5326 68.1975 14.168C71.0816 13.6115 73.9881 13.2245 76.9274 13.3109C79.3829 13.3834 81.835 13.539 84.2836 13.7135C85.1407 13.774 85.9753 14.0193 86.7477 14.4565C87.5132 14.892 87.928 15.5625 88.1319 16.3729C88.296 17.0313 87.9884 17.5583 87.5115 17.9955C87.1175 18.3549 86.6458 18.5882 86.1671 18.8059C85.8958 18.9286 85.6971 19.1049 85.564 19.3865C85.1994 20.1503 84.8055 20.9037 84.2957 21.5828C84.135 21.7919 84.1263 21.9181 84.3942 22.0373C84.8936 22.2585 85.3031 22.6231 85.7351 22.9532C85.984 23.1415 86.2172 23.3696 86.2639 23.6789C86.333 24.1368 86.6337 24.2561 87.0121 24.3719C88.0628 24.7019 89.1168 25.0285 89.9342 25.8389C90.456 26.3556 90.5113 26.6407 90.2487 27.3285C89.8962 28.2582 89.2758 28.9027 88.3652 29.2708C88.0887 29.3814 88.1319 29.5041 88.2891 29.6699C88.7211 30.1244 89.1272 30.6048 89.5869 31.0316C90.5062 31.8766 91.2077 32.891 91.9456 33.8846C92.5608 34.714 93.3124 35.3378 94.3372 35.661C96.0513 36.2053 97.6377 37.0105 99.1739 37.973C100.777 38.9753 102.219 40.1451 103.404 41.5759C105.332 43.9001 106.777 46.5232 107.833 49.3554C108.023 49.8652 108.12 50.3992 108.198 50.9383C108.422 52.4918 109.063 53.9295 109.473 55.4311C109.571 55.7975 109.813 55.9081 110.145 55.9081C110.828 55.9081 111.298 55.3084 111.085 54.6812C110.848 53.9848 110.726 53.2763 110.679 52.5419C110.58 50.9297 110.276 49.3641 109.772 47.8175C109.236 46.1707 109.381 44.4721 109.621 42.7838C109.742 41.9284 109.886 41.0748 109.898 40.2091C109.901 39.9637 109.92 39.682 110.247 39.701C110.574 39.7252 110.544 40.0225 110.539 40.2557C110.51 41.4273 110.264 42.5765 110.154 43.7394C110.003 45.305 110.059 46.8291 110.606 48.3428C111.035 49.5352 111.218 50.807 111.289 52.0805C111.336 52.9151 111.434 53.7256 111.7 54.5239C112.027 55.5123 111.944 55.6368 111.069 56.2347C110.857 56.3815 110.442 56.3729 110.454 56.6718C110.475 57.0987 110.437 57.5566 110.717 57.9471C111.061 58.4275 111.422 58.8941 111.802 59.352C112.988 60.7776 113.547 62.3864 113.062 64.2526C112.727 65.5331 112.079 66.5906 111.099 67.5082C109.86 68.6694 108.477 69.6578 107.244 70.8173C106.836 71.1992 106.445 71.6019 106.072 72.0131C105.562 72.573 105.711 73.3541 106.39 73.7048C107.411 74.2284 108.448 74.1299 109.317 73.4595C111.31 71.9233 113.053 70.121 114.619 68.1476C114.735 68.0024 114.837 67.8452 114.937 67.6896C115.35 67.052 115.298 67.09 114.845 66.506C113.928 65.3171 113.423 63.99 113.974 62.4762C114.519 60.978 115.329 59.6371 116.52 58.5554C116.698 58.3947 116.708 58.2322 116.706 58.0197C116.682 56.7565 117.461 55.972 118.37 55.2722C118.517 55.1598 118.697 55.1512 118.816 55.3257C118.937 55.5002 118.852 55.6575 118.712 55.7715C118.357 56.0601 118.018 56.3694 117.767 56.7565C117.47 57.2179 117.187 57.6603 117.415 58.2633C117.551 58.6228 117.199 58.7956 116.983 58.996C115.706 60.197 114.761 61.6191 114.434 63.3454C114.237 64.3874 114.674 65.3551 115.384 66.1292C115.846 66.6321 116.333 66.5647 116.838 66.0359C117.669 65.1685 118.471 64.2371 119.487 63.5994C121.679 62.2205 122.243 59.9326 122.943 57.7138C123.114 57.1643 122.844 56.6045 122.63 56.0947C122.098 54.8263 121.458 53.6167 120.567 52.5523C119.321 51.0714 118.196 49.5092 117.353 47.7518C117.017 47.0537 116.578 46.4247 116.392 45.6437C116.172 44.733 116.21 43.8656 116.44 42.9843C117.166 40.2402 118.237 37.6205 119.265 34.987C120.753 31.1819 121.933 27.2697 123.359 23.4456C124.228 21.1128 125.073 18.7696 126.065 16.4835C126.176 16.226 126.248 15.7594 126.637 15.9236C127.088 16.1102 126.736 16.4766 126.628 16.7461C124.907 21.0057 123.311 25.305 121.873 29.6665C120.7 33.2227 119.24 36.6753 117.971 40.197C117.598 41.2355 117.259 42.2844 117.007 43.3541C116.711 44.593 116.978 45.7301 117.56 46.8706C118.68 49.0565 120.126 51.004 121.633 52.929C122.488 54.0193 123.091 55.2877 123.478 56.6407C123.642 57.2144 123.639 57.7691 123.456 58.3376C123.167 59.2241 122.891 60.1192 122.471 60.9487C121.883 62.1099 121.298 63.24 120.074 63.9485C119.067 64.5326 118.284 65.4415 117.473 66.2882C117.156 66.6165 116.857 66.976 116.373 67.0658C116.122 67.1125 116.176 67.2957 116.177 67.4598C116.205 68.8094 116.604 70.0605 117.19 71.258C117.688 72.2758 118.213 73.2849 118.723 74.2993C119.065 74.9818 119.181 75.6817 118.844 76.3988C118.761 76.5733 118.782 76.7254 118.846 76.8844C118.972 77.2058 119.15 77.4996 119.414 77.7156C120.707 78.7662 122.023 79.7857 123.601 80.3698C126.079 81.2874 128.369 80.6895 130.536 79.3727C132.45 78.2063 134.147 76.7392 135.899 75.3516C138.5 73.2867 141.044 71.1508 143.667 69.1152C146.245 67.1125 149.015 65.4104 152.105 64.2906C152.312 64.2146 152.523 64.1507 152.737 64.1075C152.898 64.0746 153.05 64.1248 153.105 64.2993C153.157 64.4738 153.064 64.6 152.913 64.6656C152.744 64.7417 152.566 64.7969 152.388 64.8626C149.032 66.0739 146.079 67.9869 143.309 70.1883C139.742 73.0257 136.259 75.9634 132.628 78.7213C131.246 79.7719 129.786 80.6843 128.085 81.1508C126.074 81.7038 124.156 81.4688 122.324 80.4994C121.242 79.9291 120.254 79.2086 119.291 78.4586C118.814 78.0888 118.438 77.6378 118.237 77.0606C118.166 76.8567 118.077 76.7565 117.835 76.7859C116.074 76.9932 114.823 76.0809 113.753 74.8505C113.109 74.1075 112.625 73.24 112.16 72.3743C112.003 72.084 111.921 72.039 111.667 72.2723C110.396 73.4214 109.062 74.4997 107.897 75.7681C107.51 76.1915 107 76.4386 106.423 76.4921C105.341 76.5906 104.603 76.086 104.223 75.0078C104.168 74.8522 104.121 74.6933 104.061 74.4945C103.663 74.8332 103.366 75.1944 103.09 75.5763C102.963 75.7508 102.851 76.0273 102.592 75.8614C102.302 75.6748 102.509 75.4277 102.649 75.2531C103.119 74.676 103.655 74.1472 104.083 73.5407C105.79 71.1249 108.121 69.3572 110.33 67.465C111.417 66.5353 112.219 65.4536 112.557 64.0366C112.941 62.433 112.49 61.0195 111.481 59.8272C110.204 58.3169 109.227 56.6701 108.616 54.7918C108.125 53.2936 107.714 51.7798 107.404 50.2298C107.102 48.7074 106.359 47.3371 105.583 45.9996C104.629 44.3598 103.748 42.6611 102.359 41.334C101.282 40.3076 100.183 39.3278 98.8905 38.5346C97.4821 37.6689 96.0634 36.8498 94.4823 36.3902C93.5008 36.1016 92.7076 35.5884 91.9784 34.9196C91.8022 34.7607 91.6691 34.7624 91.4963 34.9093C91.2337 35.1339 90.9261 35.2739 90.5926 35.3516C89.4711 35.6143 88.436 36.0757 87.5322 36.7824C86.9637 37.23 86.3451 37.1885 85.704 37.1298C85.5744 37.1194 85.4759 37.0451 85.4465 36.9172C85.3964 36.7133 85.5347 36.6079 85.6833 36.5146C86.4782 36.0307 87.299 35.5849 88.144 35.1909C89.0391 34.771 89.9895 34.5205 90.9537 34.3287C91.3563 34.2492 91.3598 34.1178 91.1438 33.8103C90.2314 32.5125 89.0806 31.4342 88.0075 30.2817C87.9366 30.2091 87.826 30.1503 87.7932 30.0657C87.5495 29.3779 86.9568 29.4211 86.3883 29.3468C84.9454 29.1533 83.5509 28.6815 82.1063 28.4949C81.93 28.4707 81.695 28.3169 81.5983 28.5087C81.5188 28.666 81.5689 28.92 81.7037 29.0841C81.8747 29.3001 81.9853 29.5127 81.6622 29.6527C81.3788 29.7753 81.1732 29.6146 81.0609 29.3468C81.0246 29.2552 81.0125 29.1515 81.0004 29.0479C80.9675 28.7679 80.8569 28.7403 80.6444 28.9183C80.1433 29.3364 79.8512 29.8877 79.6715 30.4942C79.4676 31.1768 79.2914 31.8645 79.1168 32.5557C79.0373 32.8685 78.951 33.1571 78.4498 33.1329C79.2896 34.1178 79.8219 35.2169 80.7377 36.0187C80.9122 36.1742 81.1144 36.3176 81.327 36.4109C83.4317 37.3337 85.6193 37.8728 87.9401 37.7346C88.5224 37.6983 89.0909 37.5583 89.6162 37.3458C90.9174 36.8187 91.6726 37.1073 92.7076 38.3376C93.4939 39.2725 94.0538 40.3663 94.4823 41.5172C94.7242 42.1686 94.9782 42.8149 95.2202 43.4647C95.3342 43.7722 95.4535 44.104 95.1873 44.3753C94.9074 44.6604 94.5203 44.7054 94.1436 44.6224C93.4973 44.4807 93.1034 44.0159 92.8061 43.4629C92.5901 43.0655 92.5262 42.6283 92.5227 42.1825C92.521 41.8265 92.5055 41.4429 92.8735 41.2355C93.2606 41.0195 93.4818 41.3686 93.779 41.5327C93.1794 40.2143 92.6368 38.8681 91.403 37.9696C91.0038 37.6775 90.5753 37.6896 90.1433 37.8452C87.6394 38.7403 85.1822 38.4863 82.7474 37.5652C82.6558 37.5289 82.5452 37.4183 82.4726 37.5099C82.1339 37.9195 81.8436 37.5963 81.5931 37.4304C80.7118 36.8446 79.9532 36.1223 79.3294 35.2618C78.6745 34.358 78.0299 33.4456 77.3767 32.5384C77.1728 32.255 77.1659 31.9907 77.2748 31.6399C77.534 30.7983 77.75 29.943 78.1405 29.1515C78.2079 29.0133 78.2736 28.8768 78.3565 28.7489C78.4636 28.5761 78.6209 28.4793 78.8317 28.545C79.0408 28.6089 79.1203 28.7783 79.103 28.9822C79.0702 29.3831 79.0235 29.7857 79.0235 30.2091C79.3294 29.5645 79.6422 28.9286 80.164 28.386C79.0373 28.4482 77.9332 28.037 76.8566 28.8094C75.1666 30.0225 73.3764 31.0869 71.7434 32.3933C70.7394 33.1951 69.5419 33.7394 68.5881 34.6121C67.7051 35.419 66.6786 36.0014 65.6954 36.6667C62.3223 38.9494 58.4775 39.9378 54.5894 40.8415C53.9138 40.9988 53.2364 41.1543 52.5573 41.3029C52.362 41.3461 52.2221 41.398 52.1927 41.6399C52.1737 41.7971 52.0596 41.9457 51.9715 42.0892C51.6777 42.5765 51.4738 43.1018 51.4358 43.6634C51.2717 46.0843 51.2198 48.5035 51.4065 50.9227C51.4911 52.0166 51.8696 53.0361 52.2497 54.0539C53.1846 56.5612 54.2404 59.0254 54.8141 61.6554C55.0802 62.8616 55.3394 64.0712 55.6314 65.2722C55.9753 66.6978 56.4816 68.0767 57.3301 69.276C58.9579 71.5707 60.0914 74.0781 60.8621 76.7738C61.6207 79.428 63.1708 81.6641 64.8003 83.8379C65.4897 84.7572 66.5352 85.2929 67.4303 85.9841C69.8443 87.8503 72.559 89.1239 75.4984 89.9343C76.8549 90.3076 78.1958 90.7188 79.5488 91.1042C82.0475 91.8127 84.5169 92.6197 86.5283 94.3753C89.0339 96.5578 91.3045 98.9373 92.8908 101.906C93.9017 103.795 94.135 105.692 93.4472 107.778C92.4536 110.795 91.1472 113.677 89.8616 116.573C89.4763 117.439 89.1117 118.317 88.7384 119.188C88.6779 119.328 88.6244 119.471 88.5604 119.611C88.4619 119.829 88.3565 120.095 88.0541 119.957C87.7828 119.836 87.8865 119.585 87.9746 119.38C88.4913 118.165 88.9959 116.943 89.535 115.735C90.7412 113.045 91.9335 110.354 92.8476 107.544C93.4351 105.73 93.2813 104.063 92.4208 102.39C91.2907 100.192 89.7424 98.3186 87.9988 96.6027C86.8894 95.5089 85.742 94.4704 84.389 93.6547C82.8079 92.7009 81.047 92.2758 79.3328 91.7159C78.5621 91.4653 77.788 91.2286 77.0121 90.9936C76.1758 90.7396 75.3239 90.5201 74.4806 90.2817C71.7089 89.4885 69.2672 88.0715 66.9171 86.4334C63.3902 83.9761 61.3978 80.4821 60.1156 76.5319C59.3605 74.2094 58.4481 71.9993 57.0242 69.9983C55.7334 68.1821 55.056 66.1016 54.6603 63.9347C54.0918 60.8329 53.0999 57.8642 51.8989 54.9663C51.0159 52.8322 50.558 50.6428 50.6513 48.3307C50.7014 47.0779 50.6824 45.8234 50.7152 44.5706C50.7463 43.5493 50.8984 42.5505 51.5672 41.5742ZM78.5604 27.6171C78.7574 27.6464 78.8369 27.6689 78.9164 27.6689C80.9969 27.5998 83.0273 27.9437 85.0387 28.4534C85.7904 28.6435 86.5577 28.7576 87.3456 28.7887C88.4671 28.8353 89.4002 27.9869 89.7389 26.8827C89.7994 26.6805 89.732 26.5129 89.5782 26.3833C89.1911 26.0567 88.8196 25.7042 88.3358 25.5175C86.5317 24.816 84.6776 24.2993 82.7491 24.0574C82.4225 24.0159 82.2393 24.104 82.0994 24.384C81.7002 25.1719 81.085 25.775 80.3887 26.2986C79.8201 26.722 79.2395 27.128 78.5604 27.6171ZM115.561 67.999C115.431 68.1389 115.358 68.2029 115.303 68.2789C114.548 69.3019 113.7 70.2471 112.817 71.156C112.542 71.4394 112.495 71.6779 112.673 72.001C113.181 72.9238 113.677 73.8621 114.394 74.6293C115.263 75.5607 116.266 76.3055 117.665 76.1621C118.268 76.1016 118.438 75.8994 118.37 75.3102C118.339 75.0199 118.242 74.7572 118.115 74.4945C117.085 72.4296 115.808 70.4648 115.561 67.999ZM108.287 74.593C108.227 74.5498 108.215 74.536 108.204 74.5326C108.154 74.5256 108.101 74.517 108.054 74.5239C106.891 74.6691 105.901 74.4392 105.322 73.2901C105.22 73.0862 105.148 73.1795 105.028 73.2815C104.557 73.6962 104.532 74.1887 104.714 74.7486C104.964 75.521 105.41 75.9029 106.101 75.934C107.149 75.9875 107.655 75.2169 108.287 74.593ZM85.704 23.9226C85.3394 23.3454 84.8521 23.0465 84.3769 22.7544C83.6598 22.3173 83.2796 22.4503 82.9219 23.2055C82.8493 23.3575 82.8787 23.4249 83.0325 23.4508C83.8861 23.6063 84.7432 23.755 85.704 23.9226ZM94.0313 42.1272C93.9 42.5212 94.1142 42.9065 93.9052 43.2849C93.6892 43.6703 93.8931 43.9813 94.3458 44.0072C94.5843 44.0193 94.7156 43.9399 94.6188 43.6841C94.427 43.1657 94.2266 42.6456 94.0313 42.1272ZM78.239 32.7078C78.1612 32.1306 78.1699 31.55 78.2338 30.9003C77.7932 31.7487 77.788 32.2257 78.239 32.7078Z" fill="black"/>
</g>
<path d="M5.83186 67.973C5.18904 68.3135 4.77259 68.7386 4.33022 69.1308C3.93623 69.4764 3.56471 69.8531 3.06359 70.0518C2.83031 70.1452 2.59703 70.1832 2.40003 69.9896C2.20131 69.7978 2.22723 69.5611 2.31709 69.3278C2.3672 69.2034 2.41731 69.0738 2.48989 68.9615C3.88094 66.7945 5.07672 64.5067 6.58009 62.4106C6.93606 61.9146 7.3145 61.4325 7.71712 60.9781C8.42906 60.1745 8.91636 59.2345 9.36219 58.2754C9.4123 58.1683 9.36737 58.0111 9.34664 57.8797C9.12027 56.5785 8.90081 55.2756 8.64679 53.9779C8.50682 53.2608 8.58286 52.6439 9.16692 52.1324C12.6679 49.0634 16.015 45.8096 19.789 43.0569C21.1973 42.0287 22.6333 41.0368 24.0624 40.0363C24.2196 39.9257 24.3872 39.7598 24.6102 39.905C24.7225 39.9793 24.7484 40.0916 24.7242 40.2212C24.681 40.4631 24.5635 40.6048 24.2905 40.629C24.0105 40.6515 23.8187 40.8761 23.5941 41.0247C19.1203 44.0245 15.0301 47.4978 11.1058 51.1733C10.6133 51.6382 10.0931 52.0753 9.57819 52.5125C9.17556 52.8564 9.05806 53.259 9.17211 53.7826C9.88405 57.052 10.297 60.3577 10.3351 63.7066C10.3731 67.2196 11.301 70.5322 12.6765 73.736C12.7318 73.8638 12.7819 73.9813 12.9357 74.0245C13.0826 74.066 13.1431 74.168 13.1344 74.3304C13.0014 76.6045 15.2495 78.31 17.3663 77.5168C18.8939 76.9466 20.0188 75.8476 20.9986 74.5879C23.0429 71.9544 24.4615 68.9787 25.7748 65.9374C27.7344 61.3928 29.3466 56.7133 31.2129 52.1324C31.9559 50.3145 32.7629 48.5208 33.7928 46.8395C34.014 46.4766 34.2473 46.1206 34.5618 45.8355C34.7432 45.6696 34.9471 45.5417 35.2029 45.6489C35.4638 45.7577 35.5105 45.9997 35.5243 46.2381C35.5485 46.6148 35.4655 46.9812 35.3722 47.3406C34.5359 50.5616 33.3003 53.6461 32.0613 56.7254C30.7826 59.9032 29.122 62.9048 27.7862 66.0567C26.7736 68.4448 25.7679 70.8329 25.2668 73.3955C25.189 73.7947 24.9834 74.2613 25.1182 74.5792C25.2461 74.8816 25.8042 74.8609 26.1671 74.987C30.6254 76.5474 35.1096 78.0422 39.5333 79.7011C40.5165 80.0709 41.498 80.4527 42.4173 80.9642C45.5018 82.6784 48.7228 84.0919 51.9369 85.5383C54.3648 86.6321 56.8998 87.4512 59.3104 88.5761C62.3085 89.9758 65.3964 91.1474 68.5103 92.2499C70.8327 93.0707 73.2157 93.1623 75.621 92.6145C76.3382 92.4503 77.0173 92.217 77.5772 91.7038C77.7223 91.5708 77.9331 91.334 78.1405 91.5708C78.3738 91.8317 78.0904 91.9907 77.921 92.1393C76.8721 93.0741 75.545 93.2297 74.2352 93.4128C71.5447 93.7895 69.0321 93.1035 66.5507 92.1566C63.226 90.8882 59.9774 89.4367 56.6872 88.0923C52.108 86.2208 47.5288 84.3667 43.1776 81.9838C40.0154 80.2488 36.5887 79.1412 33.1742 78.0301C32.0147 77.6516 30.85 77.287 29.7337 76.7911C28.3669 76.1846 26.9136 75.839 25.4154 75.3257C25.6487 75.7301 25.5433 75.9495 25.1597 76.0221C24.7691 76.0947 24.4996 75.9063 24.465 75.4864C24.4045 74.7157 24.5791 73.9692 24.7277 73.2227C25.3169 70.2938 26.5127 67.5791 27.7016 64.8626C29.1064 61.6485 30.7947 58.5675 32.0458 55.2843C32.9927 52.8011 33.9639 50.3231 34.6896 47.7605C34.7951 47.3872 34.859 47.0019 34.935 46.62C34.9506 46.5474 34.9229 46.4628 34.9126 46.3193C34.624 46.5232 34.4806 46.7686 34.3371 47.0054C32.8528 49.4488 31.7693 52.084 30.7653 54.7451C29.0287 59.3572 27.3024 63.9762 25.2495 68.4621C24.014 71.1647 22.5694 73.7532 20.5372 75.9616C19.7389 76.8291 18.8092 77.5359 17.7033 77.9817C15.799 78.7472 14.211 78.1908 13.2312 76.3919C12.9253 75.8303 12.7992 75.127 12.3879 74.6691C11.9922 74.2267 11.263 74.1887 10.7239 73.8621C9.79592 73.2988 8.86279 72.7475 7.97978 72.1151C7.41127 71.7073 6.90669 71.2321 6.56281 70.6117C6.46086 70.4268 6.30879 70.311 6.11353 70.2212C5.48972 69.9326 5.29964 69.4712 5.51564 68.8094C5.60031 68.5709 5.69708 68.3394 5.83186 67.973ZM2.82512 69.53C3.30033 69.3434 3.55089 69.0859 3.81355 68.8509C4.37861 68.3377 4.93848 67.821 5.59858 67.4304C5.81977 67.2991 6.06169 67.173 6.30361 67.3752C6.51616 67.5549 6.47814 67.8002 6.40038 68.0335C6.28806 68.3549 6.16364 68.6694 6.05305 68.9874C5.93554 69.3192 5.98911 69.5905 6.36236 69.7218C6.70278 69.841 6.91878 70.095 7.09331 70.3957C7.33178 70.8122 7.65319 71.1595 8.03162 71.4515C9.141 72.2931 10.3212 73.0188 11.555 73.6634C11.7036 73.7394 11.8557 73.8932 12.0734 73.7688C12.0354 73.6513 12.006 73.5355 11.9594 73.4301C10.3731 69.8393 9.71989 66.0653 9.71989 62.16C9.71989 61.2701 9.61794 60.3784 9.56609 59.492C6.93088 62.5592 4.89874 65.9789 2.82512 69.53Z" fill="black"/>
<mask id="mask1_17_189" style="mask-type:luminance" maskUnits="userSpaceOnUse" x="100" y="0" width="7" height="39">
<path d="M100.226 0H106.862V38.1614H100.226V0Z" fill="white"/>
</mask>
<g mask="url(#mask1_17_189)">
<path d="M104.659 5.38447C104.582 9.29323 105.092 13.1536 105.652 17.0105C105.903 18.7403 105.999 20.4804 106.11 22.2205C106.2 23.6063 106.428 24.9784 106.431 26.3729C106.433 28.1303 105.987 29.8272 105.78 31.5552C105.725 32.0252 105.649 32.497 105.63 32.9704C105.58 34.0695 105.066 34.9179 104.121 35.3983C102.88 36.0342 101.769 36.7928 100.921 37.9108C100.803 38.0663 100.629 38.1856 100.439 38.0404C100.226 37.8763 100.307 37.6603 100.446 37.5013C101.087 36.7565 101.711 35.9927 102.594 35.5123C103.039 35.267 103.501 35.051 103.929 34.7797C104.515 34.4099 104.932 33.8673 104.973 33.1743C105.066 31.5967 105.369 30.0518 105.621 28.5001C105.873 26.9293 105.797 25.3603 105.612 23.793C105.381 21.8593 105.381 19.9067 105.127 17.973C104.838 15.7577 104.527 13.5441 104.294 11.3236C103.971 8.23569 104.014 5.13391 104.002 2.03386C103.998 1.54483 103.998 1.05235 104.005 0.561592C104.007 0.31967 104.023 0.0380045 104.353 0.0552848C104.641 0.0691089 104.655 0.335223 104.655 0.559864C104.66 2.16519 104.659 3.77396 104.659 5.38447Z" fill="black"/>
</g>
<path d="M101.206 51.4222C100.316 51.3841 99.3657 51.5379 98.5726 52.2343C98.4862 52.3138 98.3773 52.3726 98.2736 52.4209C95.4328 53.7187 93.5579 55.9841 92.0562 58.6193C91.6104 59.4004 91.1611 60.1763 90.5909 60.8726C90.406 61.0973 90.1934 61.2926 89.9256 61.4101C89.7476 61.4878 89.5783 61.4654 89.4901 61.2822C89.3968 61.0869 89.4556 60.8675 89.6595 60.8208C90.1554 60.705 90.3593 60.3024 90.5874 59.9412C91.2372 58.9079 91.8471 57.8538 92.4934 56.8205C93.4438 55.3102 94.7571 54.1248 96.1067 52.9929C97.0536 52.1998 98.2667 51.8092 99.3087 51.1422C99.7511 50.8554 100.352 50.8934 100.893 50.8588C101.113 50.845 101.334 50.8588 101.553 50.8502C101.932 50.8329 102.495 50.9677 102.601 50.5962C102.684 50.2955 102.198 49.9672 101.863 49.7892C100.816 49.2328 99.7632 48.6902 98.6814 48.2063C98.1216 47.9558 97.4856 47.9903 96.8757 48.0715C96.3521 48.1424 96.0428 48.4707 95.8579 48.9546C95.4967 49.9084 95.0163 50.1884 94.0072 49.9637C93.6391 49.8825 93.392 49.9758 93.1362 50.2056C92.1997 51.0368 91.5551 52.0477 91.1698 53.2383C90.6721 54.7745 90.3593 56.3487 90.1554 57.9488C90.069 58.6366 89.8997 59.314 89.6508 59.9672C89.5869 60.1365 89.4815 60.2903 89.2776 60.2264C89.0685 60.159 89.0789 59.9672 89.1411 59.7978C89.675 58.3169 89.6854 56.7341 90.05 55.2203C90.2833 54.2492 90.5373 53.2815 90.914 52.3518C91.3426 51.2908 92.0355 50.4268 92.8961 49.6872C93.2382 49.3917 93.608 49.2846 94.0711 49.4073C94.8211 49.6077 95.0837 49.4626 95.3516 48.7403C95.6522 47.9229 96.2553 47.541 97.0899 47.4771C97.8624 47.4183 98.614 47.5099 99.3173 47.8538C100.168 48.2703 101.016 48.6953 101.863 49.1239C102.227 49.3105 102.533 49.5784 102.815 49.8773C102.929 49.9965 103.029 50.1279 103.209 50.1797C103.62 50.2989 103.675 50.4925 103.395 50.8087C103.026 51.2321 102.516 51.3599 101.982 51.4135C101.766 51.4394 101.545 51.4222 101.206 51.4222Z" fill="black"/>
<path d="M60.8916 43.1916C60.762 43.1208 60.7101 43.0862 60.6514 43.0603C60.4302 42.9618 60.2004 42.8599 60.1969 42.573C60.1917 42.2723 60.4267 42.1393 60.6514 42.0166C61.3028 41.6693 62.0286 41.5708 62.8598 41.4066C62.6109 41.3513 62.4796 41.3219 62.3517 41.296C62.1305 41.2528 61.9059 41.1975 61.8713 40.9262C61.842 40.6929 61.9906 40.5443 62.1686 40.4337C63.2987 39.7373 64.4945 39.8445 65.7041 40.1572C65.8803 40.2039 66.0082 40.3404 65.9374 40.5409C65.8613 40.7655 65.6609 40.7724 65.4708 40.7275C64.9576 40.6117 64.4392 40.5288 63.9121 40.5495C63.7272 40.5581 63.5389 40.5409 63.316 40.7154C63.8119 40.762 64.2491 40.807 64.6863 40.8415C65.0457 40.8709 65.393 40.9383 65.711 41.1094C65.9287 41.2269 66.1136 41.3876 66.0721 41.6658C66.0289 41.9613 65.7801 42.0304 65.5416 42.046C65.1891 42.0684 64.8297 42.0546 64.4737 42.0425C63.5562 42.0131 62.6438 42.0373 61.7504 42.281C61.5759 42.3276 61.3806 42.3397 61.2182 42.5177C61.4065 42.6819 61.6467 42.6957 61.8593 42.7562C62.1046 42.8305 62.3949 42.865 62.3777 43.2037C62.3638 43.5027 62.1046 43.5441 61.8644 43.596C61.2665 43.7308 60.6203 43.8586 60.2004 44.3045C59.5143 45.0337 58.8508 45.7957 58.3255 46.658C58.2062 46.8533 58.2494 46.9984 58.4533 47.1177C58.7678 47.3043 58.7575 47.5756 58.6054 47.8676C58.5968 47.8832 58.5899 47.9005 58.5812 47.9108C57.6688 48.8681 57.617 50.0449 57.6947 51.2649C57.7034 51.398 57.6896 51.5362 57.6654 51.6693C57.6308 51.8507 57.5375 51.9958 57.3284 51.9751C57.1504 51.9613 57.0398 51.8213 57.0502 51.6641C57.1504 50.4475 56.715 49.136 57.7155 48.0871C57.9453 47.8452 58.0386 47.6084 57.7155 47.3198C57.4978 47.1246 57.5375 46.7893 57.6809 46.5561C58.3479 45.4622 59.0219 44.3667 60.0898 43.5994C60.311 43.4474 60.5702 43.3541 60.8916 43.1916Z" fill="black"/>
<path d="M61.9698 55.2255C62.0044 54.9145 62.2118 54.7036 62.3932 54.4825C63.4767 53.1363 64.7243 51.944 65.9702 50.7448C68.0663 48.7334 70.4544 47.0987 72.7993 45.4035C72.8943 45.3344 72.9946 45.2704 73.0982 45.2169C73.2296 45.1512 73.3678 45.1564 73.4698 45.2756C73.589 45.4121 73.5631 45.5625 73.4577 45.6921C73.3955 45.7681 73.3125 45.832 73.2278 45.8873C72.0666 46.6235 71.0281 47.5238 69.8997 48.2996C69.4953 48.5761 69.1739 48.9494 68.8162 49.2794C67.3733 50.6083 65.9927 51.9959 64.7053 53.4733C64.1368 54.1248 63.5493 54.7572 62.8615 55.2843C62.7284 55.3862 62.5816 55.4864 62.4278 55.5383C62.1617 55.6229 62.0079 55.4968 61.9698 55.2255Z" fill="black"/>
<path d="M87.0208 47.351C86.9275 46.2588 87.223 45.0596 87.8814 43.9502C88.0922 43.596 88.3514 43.2849 88.716 43.0776C89.4763 42.6438 90.2021 42.9756 90.3507 43.8379C90.3887 44.0522 90.4043 44.282 90.3662 44.4945C90.1502 45.7042 89.5454 46.7012 88.6607 47.5376C88.5985 47.5963 88.5207 47.6343 88.4464 47.6758C88.2719 47.7709 88.0853 47.8262 87.9539 47.6222C87.8226 47.4183 87.9505 47.2732 88.1112 47.154C88.9199 46.5474 89.3415 45.6903 89.6681 44.7693C89.7511 44.5412 89.7701 44.3045 89.7442 44.0695C89.6802 43.5113 89.3415 43.3541 88.9164 43.7273C88.1527 44.4012 87.8762 45.3292 87.7155 46.2934C87.6049 46.9501 87.7189 47.6119 87.712 48.2703C87.7034 49.174 87.4528 49.9672 86.7668 50.5962C86.0393 51.2666 85.1822 51.2787 84.2888 51.0921C84.1143 51.0575 83.9778 50.9383 84.0123 50.7275C84.0452 50.5495 84.1869 50.4821 84.351 50.4856C84.5377 50.489 84.7208 50.5149 84.9075 50.5288C86.0687 50.6203 86.8981 49.9378 87.0156 48.7679C87.0571 48.3636 87.0208 47.9523 87.0208 47.351Z" fill="black"/>
<path d="M92.4934 60.3629C92.2636 60.3577 92.051 60.3231 92.0303 60.0605C92.0165 59.8583 92.1703 59.7391 92.3569 59.7477C93.0049 59.7736 93.4714 59.3727 93.957 59.0548C95.3809 58.1268 96.6665 57.0244 97.9574 55.9288C99.1601 54.911 100.363 53.8932 101.567 52.8789C101.724 52.7475 101.854 52.6231 101.902 52.3985C101.961 52.122 102.232 52.0892 102.469 52.0546C102.594 52.0373 102.702 52.1099 102.754 52.2257C102.853 52.4538 102.737 52.6283 102.571 52.7596C99.7165 55.0423 97.1089 57.6309 94.0486 59.6579C93.5648 59.9793 93.0619 60.2696 92.4934 60.3629Z" fill="black"/>
<path d="M68.2771 40.0432C67.6982 39.5058 67.0605 39.2967 66.3987 39.136C66.1188 39.0686 65.8354 39.0081 65.5624 38.92C65.3291 38.8474 65.1096 38.7368 65.1131 38.4413C65.1165 38.2495 65.2375 38.1303 65.4155 38.0784C65.6816 37.999 66.0134 37.9195 66.162 38.1821C66.3348 38.4949 66.5974 38.526 66.8653 38.5934C67.7258 38.8146 68.4637 39.2345 69.0547 39.9032C69.2275 40.0985 69.402 40.3058 69.2534 40.5823C69.1065 40.8554 68.8508 40.8467 68.5847 40.7949C68.4049 40.7603 68.2149 40.7534 68.0317 40.7188C67.8157 40.6756 67.5582 40.6376 67.5824 40.3404C67.6049 40.0691 67.833 40.0657 68.0455 40.0726C68.0991 40.0743 68.1475 40.0639 68.2771 40.0432Z" fill="black"/>
<path d="M67.1487 40.8709C67.1366 41.0403 67.0554 41.163 66.8739 41.1681C66.6959 41.1768 66.5819 41.0748 66.5698 40.8968C66.5594 40.7154 66.6666 40.6083 66.8411 40.5962C67.0225 40.5823 67.1193 40.6895 67.1487 40.8709Z" fill="black"/>
</svg>
