<svg width="123" height="123" viewBox="0 0 123 123" fill="none" xmlns="http://www.w3.org/2000/svg">
<mask id="mask0_17_264" style="mask-type:luminance" maskUnits="userSpaceOnUse" x="0" y="0" width="123" height="123">
<path d="M0.658325 0H122.342V122.063H0.658325V0Z" fill="white"/>
</mask>
<g mask="url(#mask0_17_264)">
<path d="M85.6306 73.7737C86.3137 74.4588 86.7184 75.3927 86.7184 76.4213V118.323C86.7184 119.352 86.2841 120.286 85.6306 120.973C84.9455 121.658 84.0116 122.063 82.9849 122.063H40.0151C38.9884 122.063 38.0546 121.626 37.3714 120.973C36.6863 120.286 36.2816 119.352 36.2816 118.323V76.4213C36.2816 75.3927 36.7179 74.4588 37.3714 73.7737C38.023 73.0886 38.9884 72.6819 40.0151 72.6819H47.7012V72.6523C47.7012 71.9356 47.9816 71.3117 48.4476 70.8438C48.9135 70.3778 49.5374 70.0975 50.2521 70.0975H53.3637V68.1034C52.7102 68.1034 52.0567 68.1034 51.4032 68.1034C51.1544 68.1034 50.9372 67.8842 50.9372 67.6355L52.0251 33.5522C52.0251 32.4939 53.2393 31.5897 55.1683 30.9678C56.9412 30.407 59.3993 30.0635 62.1061 30.0635C64.0667 30.0635 65.9028 30.2511 67.4586 30.563H67.4902C68.049 30.6874 68.5781 30.8118 69.046 30.9678C70.9749 31.5897 72.1872 32.4939 72.1872 33.5522L73.277 67.6039C73.277 67.8546 73.0895 68.0718 72.8407 68.0718C71.7844 68.1034 70.6946 68.1034 69.6363 68.1034V70.0659H72.7479C73.4646 70.0659 74.0865 70.3463 74.5525 70.8142C75.0204 71.2801 75.2988 71.904 75.2988 72.6207V72.6523H82.9849C84.0116 72.6819 84.9455 73.1183 85.6306 73.7737ZM58.4358 79.1933H43.6558V109.788C43.6558 110.722 44.0289 111.594 44.6509 112.218C45.2728 112.84 46.1455 113.213 47.0793 113.213H75.8911C76.825 113.213 77.6641 112.84 78.286 112.218L78.3176 112.187C78.9395 111.563 79.3126 110.69 79.3126 109.756V79.1933H64.5346C64.2858 79.1933 64.0667 78.9762 64.0667 78.7274V68.135C62.3253 68.135 60.5819 68.135 58.8406 68.1034V78.6958C58.9018 79.0078 58.6846 79.1933 58.4358 79.1933ZM51.8691 67.1675H72.3432L71.2553 33.5522C71.2553 32.9619 70.2898 32.338 68.7656 31.87C68.4853 31.7772 68.1733 31.6844 67.8318 31.6213C67.8318 32.7427 67.8002 58.8496 67.8002 58.8496C67.8002 59.1003 67.583 59.3175 67.3342 59.3175C67.0855 59.3175 66.8683 59.1003 66.8683 58.8496L66.8979 31.4337C65.4981 31.1849 63.8495 31.029 62.0765 31.029C59.4625 31.029 57.0972 31.3725 55.417 31.9016C53.8928 32.3695 52.9274 32.9915 52.9274 33.5838L51.8691 67.1675ZM85.8162 76.4213C85.8162 75.6415 85.5062 74.9268 84.9771 74.4273C84.4776 73.9297 83.7628 73.5862 82.9849 73.5862H74.8328C74.5841 73.5862 74.3669 73.369 74.3669 73.1183V72.6207C74.3669 72.1844 74.1793 71.7796 73.899 71.4677C73.6186 71.1873 73.1842 70.9998 72.7479 70.9998H69.1704C68.9216 70.9998 68.7025 70.7826 68.7025 70.5338V68.1034C67.4902 68.1034 66.2444 68.1034 65.0321 68.1034V78.2279H79.8122C80.0609 78.2279 80.2781 78.447 80.2781 78.6958V109.756C80.2781 110.971 79.7806 112.062 79.0027 112.84L78.9711 112.872C78.1932 113.65 77.1033 114.118 75.9227 114.118H47.0793C45.8651 114.118 44.7753 113.62 43.9974 112.84C43.2195 112.062 42.7219 110.971 42.7219 109.756V78.7274C42.7219 78.4767 42.9391 78.2595 43.1898 78.2595H57.9679V68.1034C56.724 68.1034 55.5098 68.1034 54.2976 68.0718V70.5338C54.2976 70.7826 54.0784 70.9998 53.8296 70.9998H50.2521C49.8158 70.9998 49.411 71.1873 49.1011 71.4677C48.8207 71.7481 48.6331 72.1844 48.6331 72.6207V73.1183C48.6331 73.369 48.416 73.5862 48.1672 73.5862H40.0151C39.2372 73.5862 38.5225 73.8981 38.023 74.4273C37.5254 74.9268 37.1839 75.6415 37.1839 76.4213V118.323C37.1839 119.103 37.4958 119.82 38.023 120.317C38.5225 120.817 39.2372 121.158 40.0151 121.158H82.9849C83.7628 121.158 84.4776 120.846 84.9771 120.317C85.4746 119.82 85.8162 119.103 85.8162 118.323V76.4213ZM109.402 95.0829C109.214 94.8954 108.934 94.8954 108.748 95.0829L101.935 101.875V98.5104C101.935 98.2597 101.716 98.0425 101.467 98.0425C101.218 98.0425 101.001 98.2597 101.001 98.5104V101.875L94.217 95.0829C94.0315 94.8954 93.7511 94.8954 93.5635 95.0829C93.3779 95.2705 93.3779 95.5509 93.5635 95.7365L100.347 102.528H96.9871C96.7383 102.528 96.5191 102.747 96.5191 102.996C96.5191 103.245 96.7383 103.464 96.9871 103.464H100.347L93.5635 110.254C93.3779 110.441 93.3779 110.722 93.5635 110.909C93.7511 111.095 94.0315 111.095 94.217 110.909L101.001 104.118V107.482C101.001 107.731 101.218 107.95 101.467 107.95C101.716 107.95 101.935 107.731 101.935 107.482V104.118L108.717 110.909C108.904 111.095 109.185 111.095 109.37 110.909C109.558 110.722 109.558 110.441 109.37 110.254L102.588 103.464H105.949C106.197 103.464 106.415 103.245 106.415 102.996C106.415 102.747 106.197 102.528 105.949 102.528H102.588L109.37 95.7365C109.558 95.5509 109.558 95.2705 109.402 95.0829ZM42.8779 21.9627C43.0655 22.1503 43.3438 22.1503 43.5314 21.9627L50.3133 15.1709V18.5372C50.3133 18.786 50.5325 19.0032 50.7812 19.0032C51.03 19.0032 51.2472 18.786 51.2472 18.5372V15.1709C54.7635 18.6932 58.0311 21.9627 58.0311 21.9627C58.2167 22.1503 58.497 22.1503 58.6846 21.9627C58.8702 21.7771 58.8702 21.4968 58.6846 21.3092L51.9007 14.5174H55.2611C55.5098 14.5174 55.729 14.3003 55.729 14.0495C55.729 13.8007 55.5098 13.5836 55.2611 13.5836H51.9007L58.6846 6.79178C58.8702 6.60422 58.8702 6.32386 58.6846 6.13629C58.497 5.95071 58.2167 5.95071 58.0311 6.13629L51.2472 12.9281V9.56377C51.2472 9.31501 51.03 9.09585 50.7812 9.09585C50.5325 9.09585 50.3133 9.31501 50.3133 9.56377V12.9281L43.5314 6.13629C43.3438 5.95071 43.0655 5.95071 42.8779 6.13629C42.6903 6.32386 42.6903 6.60422 42.8779 6.79178C42.8779 6.79178 46.1751 10.0929 49.6618 13.5836H46.3014C46.0507 13.5836 45.8335 13.8007 45.8335 14.0495C45.8335 14.3003 46.0507 14.5174 46.3014 14.5174H49.6618L42.8779 21.3092C42.7219 21.4968 42.7219 21.7771 42.8779 21.9627ZM8.24772 100.441C7.99895 100.441 7.7798 100.659 7.7798 100.909V103.681C7.7798 103.93 7.99895 104.149 8.24772 104.149C8.49649 104.149 8.71367 103.93 8.71367 103.681V100.909C8.71367 100.659 8.5261 100.441 8.24772 100.441ZM8.24772 111.875C7.99895 111.875 7.7798 112.092 7.7798 112.343V115.115C7.7798 115.364 7.99895 115.583 8.24772 115.583C8.49649 115.583 8.71367 115.364 8.71367 115.115V112.343C8.71367 112.062 8.5261 111.875 8.24772 111.875ZM15.3416 107.545H12.5716C12.3228 107.545 12.1056 107.762 12.1056 108.011C12.1056 108.262 12.3228 108.479 12.5716 108.479H15.3416C15.5903 108.479 15.8075 108.262 15.8075 108.011C15.8075 107.762 15.5903 107.545 15.3416 107.545ZM3.9535 107.545H1.18348C0.934708 107.545 0.717529 107.762 0.717529 108.011C0.717529 108.262 0.934708 108.479 1.18348 108.479H3.9535C4.20227 108.479 4.41944 108.262 4.41944 108.011C4.41944 107.762 4.20227 107.545 3.9535 107.545ZM111.643 14.9854C111.891 14.9854 112.109 14.7662 112.109 14.5174V11.7454C112.109 11.4947 111.891 11.2775 111.643 11.2775C111.392 11.2775 111.175 11.4947 111.175 11.7454V14.5174C111.175 14.7662 111.392 14.9854 111.643 14.9854ZM111.643 26.3873C111.891 26.3873 112.109 26.1701 112.109 25.9193V23.1473C112.109 22.8986 111.891 22.6794 111.643 22.6794C111.392 22.6794 111.175 22.8986 111.175 23.1473V25.9193C111.175 26.1701 111.392 26.3873 111.643 26.3873ZM115.935 19.2835H118.705C118.954 19.2835 119.171 19.0663 119.171 18.8176C119.171 18.5668 118.954 18.3497 118.705 18.3497H115.935C115.686 18.3497 115.469 18.5668 115.469 18.8176C115.469 19.0979 115.686 19.2835 115.935 19.2835ZM104.547 19.2835H107.317C107.566 19.2835 107.783 19.0663 107.783 18.8176C107.783 18.5668 107.566 18.3497 107.317 18.3497H104.547C104.298 18.3497 104.081 18.5668 104.081 18.8176C104.081 19.0979 104.298 19.2835 104.547 19.2835ZM25.2351 91.3139C25.6398 91.7483 25.8886 92.309 25.8886 92.9329C25.8886 93.5864 25.6398 94.1787 25.2055 94.5834C24.7691 95.0198 24.2084 95.2705 23.5549 95.2705C22.9014 95.2705 22.311 95.0198 21.9063 94.5834C21.47 94.1471 21.2212 93.5864 21.2212 92.9329C21.2212 92.2794 21.47 91.6871 21.9063 91.2823C22.3426 90.846 22.9014 90.5972 23.5549 90.5972C24.2084 90.5972 24.8007 90.846 25.2351 91.3139ZM24.9863 92.9329C24.9863 92.5597 24.8303 92.2162 24.5816 91.9358L24.5519 91.9042C24.3032 91.6555 23.928 91.4995 23.5549 91.4995C23.1817 91.4995 22.8086 91.6555 22.5598 91.9042C22.311 92.155 22.1551 92.5281 22.1551 92.9013C22.1551 93.306 22.311 93.6496 22.5598 93.8983C22.8086 94.1471 23.1817 94.3031 23.5549 94.3031C23.9596 94.3031 24.3032 94.1471 24.5519 93.8983C24.8303 93.6812 24.9863 93.3376 24.9863 92.9329ZM100.099 33.8029C99.6623 33.3666 99.4136 32.8059 99.4136 32.1504C99.4136 31.4969 99.6623 30.9046 100.099 30.4998C100.533 30.0635 101.094 29.8147 101.747 29.8147C102.401 29.8147 102.991 30.0635 103.396 30.4998L103.427 30.5314C103.832 30.9678 104.081 31.5285 104.081 32.1504C104.081 32.8059 103.832 33.3962 103.396 33.8029C102.961 34.2393 102.401 34.488 101.747 34.488C101.094 34.488 100.533 34.2393 100.099 33.8029ZM100.316 32.1504C100.316 32.5551 100.472 32.8987 100.721 33.1474C100.969 33.3962 101.342 33.5522 101.716 33.5522C102.12 33.5522 102.462 33.3962 102.713 33.1474C102.961 32.8987 103.115 32.5255 103.115 32.1504C103.115 31.7772 102.961 31.4337 102.713 31.1533L102.681 31.1237C102.432 30.873 102.059 30.717 101.686 30.717C101.311 30.717 100.938 30.873 100.689 31.1237C100.472 31.4041 100.316 31.7456 100.316 32.1504ZM122.283 85.0828C122.283 85.7364 122.034 86.3287 121.599 86.7334C121.163 87.1697 120.602 87.4185 119.949 87.4185C119.295 87.4185 118.705 87.1697 118.3 86.7334C117.864 86.2971 117.615 85.7364 117.615 85.0828C117.615 84.4274 117.864 83.8351 118.3 83.4303C118.737 82.994 119.295 82.7452 119.949 82.7452C120.602 82.7452 121.195 82.994 121.599 83.4303L121.629 83.4619C122.034 83.8982 122.283 84.4589 122.283 85.0828ZM121.351 85.0828C121.351 84.7077 121.195 84.3661 120.946 84.0858L120.914 84.0542C120.666 83.8054 120.292 83.6495 119.919 83.6495C119.544 83.6495 119.171 83.8054 118.922 84.0542C118.673 84.303 118.517 84.6761 118.517 85.0513C118.517 85.456 118.673 85.7995 118.922 86.0483C119.171 86.2971 119.544 86.453 119.919 86.453C120.322 86.453 120.666 86.2971 120.914 86.0483C121.195 85.8607 121.351 85.4876 121.351 85.0828ZM25.5154 4.01781C25.0811 3.58345 24.8303 3.02076 24.8303 2.36725C24.8303 1.71374 25.0811 1.12143 25.5154 0.716691C25.9518 0.248768 26.5421 0 27.1956 0C27.8491 0 28.4414 0.248768 28.8442 0.685101L28.8758 0.716691C29.2805 1.15302 29.5293 1.71374 29.5293 2.33566C29.5293 2.99115 29.2805 3.58345 28.8442 3.9882C28.4098 4.42453 27.8491 4.6733 27.1956 4.6733C26.5421 4.70489 25.9518 4.42453 25.5154 4.01781ZM25.7642 2.33566C25.7642 2.7404 25.9202 3.08394 26.1689 3.33271C26.4177 3.58345 26.7909 3.73745 27.164 3.73745C27.5688 3.73745 27.9123 3.58345 28.1611 3.33271C28.4098 3.08394 28.5658 2.71079 28.5658 2.33566C28.5658 1.96251 28.4098 1.61897 28.1611 1.33861L28.1295 1.309C27.8807 1.05825 27.5075 0.90228 27.1344 0.90228C26.7612 0.90228 26.3861 1.05825 26.1373 1.309C25.9202 1.58936 25.7642 1.96251 25.7642 2.33566ZM78.0688 29.4396C77.0737 28.4445 75.7035 27.8206 74.1793 27.8206V26.8868H74.2721C75.7667 26.8552 77.1033 26.2313 78.0688 25.2658C79.0639 24.2688 79.6878 22.8986 79.6878 21.3724H80.6197C80.6197 22.8986 81.2416 24.2688 82.2386 25.2658C83.2337 26.2629 84.6039 26.8868 86.1281 26.8868V27.8206C84.6039 27.8206 83.2337 28.4445 82.2386 29.4396C81.2416 30.4367 80.6197 31.8088 80.6197 33.335H79.6878C79.6878 31.8088 79.0639 30.4367 78.0688 29.4396ZM76.5762 27.3527C77.3837 27.6647 78.132 28.1642 78.7223 28.7861C79.3442 29.41 79.8122 30.1267 80.1537 30.9362C80.4953 30.1267 80.9632 29.3784 81.5851 28.7861C82.207 28.1938 82.9218 27.6962 83.7312 27.3527C82.9218 27.0408 82.1755 26.5432 81.5851 25.9193C80.9632 25.2974 80.4953 24.5807 80.1537 23.7712C79.8418 24.5807 79.3442 25.329 78.7223 25.9193C78.1004 26.5432 77.3837 27.0408 76.5762 27.3527ZM16.1195 70.5022C17.1145 71.4993 18.4828 72.1212 20.0089 72.1212V73.057C18.4828 73.057 17.1145 73.679 16.1195 74.676C15.1224 75.6731 14.5005 77.0452 14.5005 78.5714H13.5666C13.5666 77.0452 12.9447 75.6731 11.9496 74.676C10.9546 73.679 9.58436 73.057 8.06015 73.057V72.1212H8.15295C9.64754 72.0916 10.9842 71.4677 11.9496 70.5022C12.9447 69.5052 13.5666 68.135 13.5666 66.6068H14.5005C14.5321 68.135 15.1224 69.5052 16.1195 70.5022ZM17.6437 72.5891C16.8342 72.2772 16.0879 71.7796 15.4975 71.1557C14.8737 70.5338 14.4077 69.8171 14.0661 69.0057C13.7542 69.8171 13.2567 70.5634 12.6347 71.1557C12.0108 71.7796 11.2961 72.2456 10.4866 72.5891C11.2961 72.9011 12.0424 73.3986 12.6347 74.0225C13.2567 74.6464 13.7226 75.3611 14.0661 76.1726C14.4077 75.3611 14.8737 74.6148 15.4975 74.0225C16.0879 73.3986 16.8342 72.9011 17.6437 72.5891ZM30.1512 51.965C28.939 54.9562 26.6981 56.3264 23.4621 56.1092C20.2577 55.89 16.0247 53.9907 10.7986 50.5C10.5814 50.346 10.5182 50.0637 10.6742 49.8465C10.7354 49.7834 10.7986 49.7221 10.8598 49.6906C12.1668 49.0686 13.4126 48.5079 14.6249 48.0716C18.546 46.5434 21.7819 45.9827 24.3328 46.3894C26.9468 46.7942 28.8442 48.196 29.9656 50.5632C30.0584 50.7192 30.1216 50.9068 30.1828 51.0608C32.4553 51.4971 34.1967 52.0578 35.5037 52.7133C34.3842 50.9364 33.2016 49.193 31.9262 47.5405C28.2854 42.806 23.9912 38.6618 19.1067 35.0803C18.7631 35.4219 18.2972 35.6707 17.7996 35.7338C17.4561 35.7951 17.083 35.7654 16.773 35.7023C13.7858 38.3203 11.3277 38.9422 9.77192 38.6302C9.11841 38.5058 8.58928 38.1959 8.24772 37.8207C7.87259 37.416 7.687 36.9185 7.71859 36.4189C7.74821 35.951 7.96736 35.4535 8.3721 35.0487C8.02856 34.9244 7.74821 34.8 7.46982 34.6736C6.78472 34.3005 6.28718 33.8029 6.00683 33.2718C5.69488 32.7427 5.60208 32.1504 5.66526 31.5897C5.72647 30.9974 6.00683 30.4367 6.41157 30.0023C6.37998 29.9707 6.3168 29.9391 6.28718 29.9075C5.35331 29.1592 4.66821 28.3498 4.23386 27.6331C3.73434 26.8552 3.51716 26.1069 3.60996 25.5462C3.64155 25.2658 3.76593 25.017 3.92191 24.7979C3.98509 24.7367 4.0147 24.6735 4.07788 24.6419C4.6998 24.0516 5.91403 23.864 7.56262 24.3616C8.15295 24.5491 8.80646 24.7979 9.52315 25.173C9.39877 24.6735 9.33559 24.2372 9.36718 23.864C9.39877 23.3645 9.58436 22.9598 9.83313 22.6498C10.1135 22.3379 10.4866 22.1503 10.923 22.0891C11.3889 22.0259 11.918 22.1187 12.5104 22.3694C13.2251 22.6794 14.0346 23.2717 14.844 24.176C14.8737 23.6765 14.998 23.2401 15.154 22.8986C15.3416 22.5234 15.5903 22.2135 15.8707 22.0259C16.1807 21.8383 16.5242 21.7455 16.8974 21.8087C17.2705 21.8699 17.6121 22.0575 17.9556 22.3991C18.6091 23.0842 19.2311 24.4247 19.541 26.3557C19.7898 27.8838 19.853 29.7831 19.6358 32.0892C19.7602 32.338 19.853 32.5867 19.9142 32.8671C20.0089 33.3666 19.9142 33.8957 19.7286 34.3321C24.4888 37.8207 28.6902 41.8405 32.2993 46.3894C31.8314 43.4279 31.1483 40.188 30.246 36.6381C29.8096 36.6381 29.4049 36.6065 29.0002 36.5433C27.2272 36.263 25.857 35.3291 24.8935 33.7082C23.9596 32.1504 23.4305 30.0023 23.2745 27.1967C23.1205 24.2688 23.3693 20.6853 24.0524 16.3556C24.0524 16.2628 24.1156 16.168 24.1768 16.0752C24.3644 15.8876 24.6447 15.8876 24.8303 16.0436C26.5105 17.6014 27.9419 19.1275 29.1561 20.6241C31.551 23.5837 33.0456 26.4188 33.5432 28.9421C34.0407 31.5581 33.5116 33.8325 31.8018 35.6707C31.6142 35.8898 31.397 36.0774 31.1483 36.2946C32.2361 40.5631 33.014 44.3953 33.4819 47.884C34.9746 49.9097 36.3744 52.0282 37.6498 54.2395L37.6814 54.2711C37.713 54.3027 37.713 54.3323 37.7446 54.3639C39.3932 57.2306 40.8562 60.283 42.1316 63.4913C42.2244 63.742 42.1 63.9908 41.8828 64.0836C41.6341 64.1784 41.3853 64.052 41.2905 63.8348C40.0151 60.6265 38.5521 57.6038 36.9035 54.737C35.9084 53.6156 33.6991 52.6817 30.1512 51.965ZM29.9024 35.7023C29.7781 35.1731 29.6221 34.6124 29.4681 34.0833C28.1907 29.3152 26.5421 24.0516 24.5519 18.3497C24.084 21.7771 23.928 24.7367 24.0524 27.1671C24.2084 29.8147 24.7059 31.8384 25.547 33.2422C26.3565 34.6124 27.5075 35.3903 29.0002 35.6411C29.3121 35.6707 29.6221 35.7023 29.9024 35.7023ZM30.9923 35.0803C32.4849 33.491 32.9528 31.4653 32.5165 29.1592C32.0505 26.792 30.6191 24.0812 28.3151 21.246C27.476 20.2194 26.5421 19.1591 25.4838 18.1009C27.476 23.8324 29.093 29.0665 30.4 33.8325L30.7751 35.2975L30.9923 35.0803ZM15.7759 25.3586C15.8391 25.4534 15.9003 25.5146 15.9635 25.6094C16.8658 26.948 17.7049 28.7545 18.3584 30.9678C18.4828 31.029 18.6091 31.0921 18.7335 31.1533C18.8579 29.3152 18.7947 27.7575 18.5775 26.48C18.2972 24.7367 17.7681 23.5837 17.2389 22.9914C17.0533 22.8038 16.8974 22.711 16.7098 22.6794C16.5854 22.6498 16.461 22.6794 16.3366 22.7742C16.1807 22.867 16.0563 23.023 15.9635 23.2401C15.7463 23.7396 15.6515 24.4247 15.7759 25.3586ZM10.7354 25.8581C11.5133 26.3557 12.3544 26.948 13.2251 27.6647C14.3149 28.5373 15.466 29.5956 16.6486 30.873C16.7414 30.8434 16.8342 30.8118 16.9586 30.8118C17.083 30.7802 17.2073 30.7802 17.3317 30.7802C16.7098 28.8493 15.9635 27.3211 15.1856 26.1069C14.1589 24.5491 13.0395 23.5837 12.1056 23.1789C11.7009 22.9914 11.3277 22.9302 11.0158 22.9598C10.7986 22.9914 10.611 23.0842 10.4866 23.2105C10.3623 23.3645 10.2695 23.5837 10.2379 23.8956C10.2379 24.3932 10.3623 25.0486 10.7354 25.8581ZM6.81631 29.1592C8.55769 30.5926 11.2961 31.9332 14.998 32.5255C15.0928 32.2748 15.1856 32.026 15.3416 31.8088C15.466 31.6213 15.6219 31.4653 15.8075 31.3093C14.6881 30.1563 13.6298 29.1592 12.6347 28.3498C10.5182 26.6064 8.68208 25.639 7.28226 25.2026C6.00683 24.8295 5.10455 24.8927 4.6998 25.2658L4.63662 25.329C4.57542 25.3902 4.54383 25.5146 4.51224 25.6094C4.45103 25.9825 4.60701 26.48 4.94857 27.0724C5.35331 27.7575 5.97524 28.4741 6.81631 29.1592ZM7.87259 33.8325C8.30892 34.0517 8.83805 34.2393 9.45997 34.3636H9.49156C10.8302 34.6124 12.6347 34.5492 14.998 34.0201C14.9684 33.9273 14.9368 33.8029 14.9052 33.6766C14.9052 33.5838 14.8737 33.5226 14.8737 33.4278C11.5449 32.8987 8.93084 31.7772 7.0947 30.5314C6.75313 30.8118 6.56754 31.2165 6.50436 31.6529C6.47277 32.026 6.53595 32.4011 6.72154 32.7743C6.97031 33.179 7.34544 33.5226 7.87259 33.8325ZM15.8707 35.2343C15.7147 35.11 15.5903 34.9856 15.466 34.8612C12.9447 35.4535 10.9842 35.5463 9.49156 35.2975C8.90123 35.6095 8.62087 36.0142 8.58928 36.4189C8.58928 36.6677 8.68208 36.9481 8.86964 37.1672C9.08682 37.416 9.45997 37.6036 9.8963 37.6964C11.2033 37.9451 13.2567 37.4476 15.8707 35.2343ZM18.6703 34.1761C18.8875 33.8325 19.0119 33.4278 18.9507 32.9915C18.8875 32.5867 18.6387 32.2136 18.3288 31.9944L18.2972 31.9648C17.9556 31.7456 17.5509 31.6213 17.1145 31.6844C16.6782 31.7456 16.3366 31.9944 16.0879 32.338C15.8707 32.6815 15.7463 33.0862 15.8075 33.5226C15.8707 33.9273 16.1195 34.3005 16.4294 34.5196L16.461 34.5492C16.8026 34.7684 17.2073 34.8928 17.6437 34.8296C18.08 34.7368 18.4216 34.5196 18.6703 34.1761ZM13.1007 49.6906C19.7898 49.8149 25.1107 50.1901 29.093 50.8752C28.0979 48.8495 26.4493 47.6649 24.2084 47.3233C21.8135 46.9502 18.7335 47.5109 14.9684 48.9423C14.3445 49.1614 13.7542 49.4102 13.1007 49.6906ZM29.2193 51.809L29.0633 51.7775C25.0179 51.0924 19.541 50.6876 12.6031 50.5948C17.083 53.4596 20.7237 54.9878 23.5253 55.2049C26.2617 55.3925 28.1611 54.2711 29.2193 51.809ZM117.927 62.7766C117.337 65.6414 115.686 68.1646 113.508 70.0975C111.86 71.5605 109.899 72.6819 107.878 73.3374C105.854 73.9909 103.739 74.1785 101.81 73.7737C100.099 73.4302 98.5429 72.6207 97.297 71.3117C95.4629 72.3088 93.7511 73.6494 92.3197 75.5803C91.449 80.9387 91.1371 86.8262 91.3858 93.2132C91.3858 93.462 91.2002 93.6812 90.9495 93.6812C90.7007 93.6812 90.4835 93.4936 90.4835 93.2448C90.2348 86.765 90.5467 80.8143 91.449 75.3611C91.449 75.3315 91.449 75.2999 91.449 75.2683C91.603 74.3345 91.759 73.3986 91.9781 72.4647C92.1025 71.904 92.2269 71.3433 92.3513 70.7826C92.3809 67.8546 92.0709 65.0194 91.3858 62.2139C90.6079 62.4646 89.8932 62.5574 89.2397 62.5574C88.0886 62.5258 87.0916 62.1527 86.2209 61.3728C85.4114 60.6581 84.7283 59.5663 84.1992 58.1645V58.1329C83.1725 55.3609 82.7046 51.2167 82.829 45.7024V45.6727V45.6412C82.829 45.6096 82.829 45.6096 82.829 45.578V45.5464C82.829 45.5168 82.829 45.5168 82.8606 45.4852C82.8606 45.4852 82.8606 45.4852 82.8606 45.4536C82.8606 45.422 82.8922 45.422 82.8922 45.3924L82.9237 45.3608L82.9534 45.3292C83.1093 45.2048 83.2969 45.2048 83.4825 45.266C84.3236 45.7024 85.1014 46.1387 85.8162 46.6066C89.2693 48.7567 91.5418 51.0311 92.6001 53.3668C93.7195 55.7656 93.5951 58.1961 92.3197 60.6265C92.2269 60.8121 92.1321 60.9681 92.0077 61.1556C92.0393 61.2484 92.0709 61.3432 92.0709 61.436L92.1025 61.4992C92.6001 63.4913 92.9416 65.5486 93.0976 67.6039C94.3118 63.3985 95.9604 59.5663 98.0137 56.1092C97.9821 56.0776 97.9209 56.046 97.8893 55.9848C97.453 55.5169 97.2042 54.8634 97.2042 54.1763V54.1151C97.2042 53.8347 97.2674 53.586 97.3602 53.3668C94.7146 49.4734 94.1558 46.4506 94.4974 44.7053C94.6218 44.0518 94.9021 43.5543 95.2437 43.2107C95.6169 42.8376 96.1164 42.7132 96.6139 42.806C97.0799 42.8988 97.5774 43.2107 98.0453 43.7714C98.1993 43.2107 98.3553 42.7132 98.5744 42.2769C99.0088 41.341 99.6011 40.7487 100.16 40.5947C100.316 40.5631 100.44 40.5315 100.565 40.5631C101.125 40.5947 101.623 41.0607 101.872 41.9649C101.964 42.2453 101.996 42.5572 102.059 42.8988C102.464 42.2137 102.898 41.653 103.335 41.2482C103.988 40.5947 104.671 40.2828 105.264 40.2828C105.917 40.2828 106.476 40.6559 106.756 41.4042C107.1 42.3065 107.1 43.8346 106.476 45.9531C106.632 45.8267 106.788 45.734 106.912 45.6412C107.846 45.0173 108.685 44.6441 109.402 44.4881C110.18 44.3322 110.833 44.425 111.299 44.7053C111.518 44.8317 111.672 44.9857 111.797 45.1732L111.828 45.2048C111.921 45.3292 111.984 45.4536 112.016 45.6096C112.233 46.2631 112.077 47.1673 111.455 48.1328C111.082 48.7251 110.521 49.3786 109.775 50.0341C110.709 50.0025 111.518 50.1901 112.14 50.5C112.823 50.8436 113.291 51.3727 113.477 51.965C113.54 52.121 113.54 52.277 113.572 52.4329C113.572 52.5573 113.572 52.6501 113.54 52.7745C113.447 53.5228 112.887 54.2395 111.828 54.8318C110.833 55.3609 109.37 55.7341 107.348 55.8288C105.854 55.89 104.018 55.8288 101.81 55.5169C101.686 55.7044 101.56 55.89 101.406 56.046C100.938 56.4823 100.316 56.7627 99.6011 56.7311H99.5379C99.2576 56.7311 98.9772 56.6383 98.6988 56.5455C95.9604 61.2188 93.9683 66.5456 92.7244 72.5259C92.6613 72.8695 92.5685 73.2426 92.5053 73.5862C94.0315 71.904 95.7412 70.751 97.5774 69.9099C99.4136 66.9188 101.964 64.7687 105.264 63.4617C108.561 62.1527 112.606 61.6848 117.398 62.0599C117.586 62.0895 117.771 62.2139 117.803 62.4015C117.803 62.433 117.803 62.4646 117.803 62.4962V62.5258C117.803 62.5574 117.803 62.5574 117.803 62.589C117.927 62.7766 117.927 62.7766 117.927 62.7766ZM100.877 55.5169C101.157 55.2365 101.374 54.8318 101.374 54.3954V54.3639C101.374 53.8959 101.218 53.4912 100.938 53.1792C100.657 52.8693 100.255 52.6817 99.8183 52.6817C99.382 52.6817 98.9772 52.8377 98.6672 53.118C98.3869 53.3984 98.1697 53.8031 98.1697 54.2395V54.2711C98.1697 54.737 98.3237 55.1437 98.6041 55.4537C98.8844 55.7341 99.2576 55.9532 99.6939 55.9532H99.7255C100.16 55.9532 100.565 55.7972 100.877 55.5169ZM109.807 51.0608C109.309 51.0924 108.78 51.1871 108.219 51.3411C106.727 52.3086 104.766 53.2424 102.276 54.0835C102.276 54.1763 102.276 54.2711 102.276 54.3639V54.427C102.276 54.5514 102.245 54.6442 102.245 54.7686C104.268 55.0174 105.978 55.1121 107.378 55.0174C109.277 54.9246 110.614 54.583 111.487 54.1151C112.265 53.7103 112.669 53.2108 112.731 52.7745C112.731 52.7133 112.731 52.6501 112.731 52.5889C112.731 52.4941 112.699 52.4329 112.699 52.3382C112.575 51.9966 112.296 51.6531 111.828 51.4359C111.299 51.1871 110.614 51.0311 109.807 51.0608ZM101.872 52.8989C101.935 52.9937 101.996 53.0864 102.059 53.2108C104.642 52.3382 106.602 51.3727 108.032 50.3757C109.37 49.4734 110.272 48.5375 110.77 47.7596C111.238 47.0429 111.362 46.4191 111.238 45.9827C111.206 45.9215 111.175 45.8583 111.143 45.7971V45.7655C111.082 45.6727 111.019 45.6096 110.926 45.5464C110.646 45.3924 110.241 45.3292 109.682 45.4536C109.09 45.578 108.344 45.8899 107.534 46.4506C105.854 47.6037 103.925 49.6294 101.872 52.8989ZM102.12 45.0173C102.12 45.0489 102.089 45.0804 102.089 45.0804C101.374 46.7942 100.813 49.0686 100.596 51.9018C100.813 51.9966 101.033 52.0894 101.218 52.2138C102.588 50.0637 103.925 48.4132 105.139 47.2305C106.166 44.5197 106.322 42.7428 105.949 41.8405C105.793 41.4654 105.574 41.2798 105.295 41.2798C104.952 41.2798 104.486 41.497 104.018 41.9649C103.366 42.6184 102.713 43.6155 102.12 45.0173ZM98.6988 45.9215C98.5744 47.5405 98.6988 49.5346 99.2892 51.809C99.4136 51.7775 99.5379 51.7775 99.6623 51.7775C99.8795 48.9127 100.472 46.575 101.187 44.8001C101.25 43.6786 101.187 42.8672 101.001 42.3065C100.845 41.8089 100.657 41.5602 100.503 41.5602C100.472 41.5602 100.44 41.5602 100.409 41.5602C100.099 41.653 99.7551 42.0577 99.4136 42.7428C99.1016 43.4911 98.8232 44.5809 98.6988 45.9215ZM97.9506 52.5573C97.9821 52.5257 98.0137 52.4645 98.0749 52.4329C98.1993 52.3086 98.3237 52.2138 98.4797 52.121C97.8578 49.6906 97.7018 47.5405 97.8262 45.8267C97.8578 45.578 97.8578 45.3608 97.8893 45.1416C97.453 44.271 96.9871 43.8346 96.5507 43.7399C96.3336 43.7083 96.146 43.7714 95.9604 43.9274C95.7412 44.115 95.5872 44.4565 95.4925 44.9245C95.1509 46.4506 95.6485 49.0983 97.9506 52.5573ZM85.3502 47.4477C85.2554 47.3845 85.1627 47.3549 85.1014 47.2917C87.6207 50.6264 89.5813 54.0835 90.9199 57.667C91.2002 58.4133 91.4786 59.1931 91.6978 59.971C92.6613 57.9157 92.7244 55.8584 91.7906 53.8347C90.7955 51.6531 88.6474 49.503 85.3502 47.4477ZM91.1371 61.3432C90.8251 60.2218 90.4835 59.1003 90.0472 57.9769C88.6158 54.2079 86.5013 50.5316 83.6997 47.0114C83.67 51.7775 84.136 55.3925 85.0383 57.8525V57.8841C85.5062 59.13 86.0965 60.0954 86.8112 60.7193C87.4963 61.3116 88.3058 61.6532 89.2397 61.6532C89.83 61.6848 90.452 61.5604 91.1371 61.3432ZM99.2576 69.3808C101.125 68.6641 103.086 68.1646 105.076 67.6671C108.934 66.7016 112.887 65.7046 116.278 63.0254C112.14 62.8062 108.624 63.2741 105.698 64.4587C103.054 65.517 100.908 67.1675 99.2576 69.3808ZM116.683 63.9276C113.167 66.6068 109.214 67.6039 105.325 68.5713C102.837 69.1932 100.409 69.8171 98.1697 70.8754C99.2576 71.9356 100.565 72.5575 101.996 72.8695C103.769 73.2426 105.73 73.057 107.597 72.4647C109.495 71.8408 111.331 70.8142 112.918 69.4124C114.598 67.9158 115.935 66.0461 116.683 63.9276Z" fill="#2F3335"/>
</g>
</svg>
